<svg width="12" height="12" viewBox="0 0 12 12" fill="none" xmlns="http://www.w3.org/2000/svg">
<path d="M9.99999 10.8C9.79999 10.8 9.59999 10.7 9.49999 10.6L5.99999 7.09999L2.49999 10.6C2.19999 10.9 1.69999 10.9 1.39999 10.6C1.09999 10.3 1.09999 9.79999 1.39999 9.49999L4.89999 5.99999L1.49999 2.49999C1.19999 2.19999 1.19999 1.69999 1.49999 1.39999C1.79999 1.09999 2.29999 1.09999 2.59999 1.39999L5.99999 4.89999L9.49999 1.39999C9.79999 1.09999 10.3 1.09999 10.6 1.39999C10.9 1.69999 10.9 2.19999 10.6 2.49999L7.09999 5.99999L10.6 9.49999C10.9 9.79999 10.9 10.3 10.6 10.6C10.4 10.7 10.2 10.8 9.99999 10.8Z" fill="#2D3E50"/>
</svg>
