<svg width="16" height="16" viewBox="0 0 16 16" fill="none" xmlns="http://www.w3.org/2000/svg">
<path d="M13 13.8C12.8 13.8 12.6 13.7 12.5 13.6L7.99999 9.09999L3.49999 13.6C3.19999 13.9 2.69999 13.9 2.39999 13.6C2.09999 13.3 2.09999 12.8 2.39999 12.5L6.89999 7.99999L2.49999 3.49999C2.19999 3.19999 2.19999 2.69999 2.49999 2.39999C2.79999 2.09999 3.29999 2.09999 3.59999 2.39999L7.99999 6.89999L12.5 2.39999C12.8 2.09999 13.3 2.09999 13.6 2.39999C13.9 2.69999 13.9 3.19999 13.6 3.49999L9.09999 7.99999L13.6 12.5C13.9 12.8 13.9 13.3 13.6 13.6C13.4 13.7 13.2 13.8 13 13.8Z" fill="#2D3E50"/>
</svg>
