<svg width="24" height="24" viewBox="0 0 24 24" fill="none" xmlns="http://www.w3.org/2000/svg">
<path d="M19 19.9C18.8 19.9 18.5 19.8 18.4 19.6L12 13.3L5.6 19.7C5.2 20.1 4.7 20.1 4.3 19.7C3.9 19.3 3.9 18.8 4.3 18.4L10.7 12L4.4 5.60001C4 5.30001 4 4.70001 4.4 4.40001C4.7 4.00001 5.3 4.00001 5.6 4.40001L12 10.8L18.4 4.40001C18.8 4.00001 19.3 4.00001 19.7 4.40001C20.1 4.80001 20.1 5.30001 19.7 5.70001L13.3 12L19.7 18.4C20.1 18.8 20.1 19.3 19.7 19.7C19.5 19.8 19.2 19.9 19 19.9Z" fill="#2D3E50"/>
</svg>
