<svg width="16" height="16" viewBox="0 0 16 16" fill="none" xmlns="http://www.w3.org/2000/svg">
<path d="M8.2 15.4C4.2 15.4 1 12.2 1 8.2C1 4.2 4.2 1 8.2 1C12.2 1 15.4 4.3 15.4 8.2C15.4 12.2 12.2 15.4 8.2 15.4ZM8.2 2.4C5 2.4 2.4 5 2.4 8.2C2.4 11.4 5 14 8.2 14C11.4 14 14 11.4 14 8.2C14 5 11.4 2.4 8.2 2.4Z" fill="#2D3E50"/>
<path d="M8.28571 4C8.57143 4 8.78571 4.06818 8.92857 4.27273C9.07143 4.47727 9.14286 4.68182 9.14286 4.95455C9.14286 5.22727 9.07143 5.43182 8.85714 5.63636C8.71429 5.84091 8.42857 5.90909 8.21429 5.90909C7.92857 5.90909 7.71429 5.84091 7.57143 5.63636C7.42857 5.43182 7.35714 5.22727 7.35714 4.95455C7.35714 4.68182 7.5 4.47727 7.64286 4.27273C7.85714 4.13636 8.07143 4 8.28571 4ZM7.85714 6.93182C8.28571 6.93182 8.57143 7.06818 8.71429 7.27273C8.85714 7.54545 9 7.81818 9 8.22727C9 8.43182 9 8.63636 8.92857 8.97727C8.85714 9.31818 8.85714 9.65909 8.78571 10C8.71429 10.3409 8.71429 10.6818 8.64286 10.9545C8.57143 11.2273 8.57143 11.4318 8.57143 11.5682C8.57143 11.7045 8.57143 11.7727 8.64286 11.8409C8.71429 11.9091 8.71429 11.9091 8.78571 11.9091C8.85714 11.9091 9 11.8409 9.07143 11.7045C9.14286 11.5682 9.28571 11.3636 9.35714 10.9545L10 11.1591C10 11.2955 9.92857 11.5 9.78571 11.7045C9.71429 11.9091 9.57143 12.1136 9.42857 12.3182C9.28571 12.5227 9.07143 12.6591 8.85714 12.7955C8.64286 12.9318 8.42857 13 8.14286 13C7.71429 13 7.35714 12.8636 7.21429 12.6591C7.07143 12.4545 7 12.1136 7 11.7045C7 11.5 7 11.2273 7.07143 10.8864C7.14286 10.5455 7.14286 10.2727 7.21429 9.93182C7.28571 9.59091 7.28571 9.31818 7.35714 9.04545C7.42857 8.77273 7.42857 8.5 7.42857 8.36364C7.42857 8.22727 7.42857 8.15909 7.35714 8.09091C7.28571 8.02273 7.28571 8.02273 7.21429 8.02273C7.14286 8.02273 7 8.09091 6.92857 8.22727C6.85714 8.36364 6.71429 8.56818 6.64286 8.97727L6 8.77273C6 8.63636 6.07143 8.43182 6.21429 8.22727C6.28571 8.02273 6.42857 7.81818 6.57143 7.61364C6.71429 7.40909 6.92857 7.27273 7.14286 7.13636C7.35714 7 7.57143 6.93182 7.85714 6.93182Z" fill="#2D3E50"/>
</svg>
