<svg width="16" height="16" viewBox="0 0 16 16" fill="none" xmlns="http://www.w3.org/2000/svg">
<path fill-rule="evenodd" clip-rule="evenodd" d="M8 15C11.866 15 15 11.866 15 8C15 4.13401 11.866 1 8 1C4.13401 1 1 4.13401 1 8C1 11.866 4.13401 15 8 15ZM9.00781 4.46875C9.05469 4.35156 9.08203 4.22461 9.08984 4.08789C9.09766 3.95117 9.08203 3.82227 9.04297 3.70117C9.00391 3.58008 8.94531 3.47461 8.86719 3.38477C8.79297 3.29492 8.70117 3.22461 8.5918 3.17383C8.48242 3.12305 8.36328 3.09766 8.23438 3.09766C8.11328 3.09766 7.99609 3.12305 7.88281 3.17383C7.76953 3.22461 7.66797 3.29492 7.57812 3.38477C7.49219 3.47461 7.41992 3.58008 7.36133 3.70117C7.30664 3.82227 7.27539 3.95117 7.26758 4.08789C7.25977 4.22461 7.27539 4.35156 7.31445 4.46875C7.35742 4.58594 7.41797 4.68945 7.49609 4.7793C7.57422 4.86914 7.66797 4.93945 7.77734 4.99023C7.89062 5.04102 8.01562 5.06641 8.15234 5.06641C8.28516 5.06641 8.4082 5.04102 8.52148 4.99023C8.63477 4.93945 8.73242 4.86914 8.81445 4.7793C8.89648 4.68945 8.96094 4.58594 9.00781 4.46875ZM8.89062 8.00195C8.91016 7.80273 8.91992 7.63867 8.91992 7.50977C8.91992 7.29883 8.90039 7.10742 8.86133 6.93555C8.82617 6.76367 8.76367 6.61719 8.67383 6.49609C8.58789 6.375 8.47461 6.28125 8.33398 6.21484C8.19336 6.14844 8.01953 6.11523 7.8125 6.11523C7.54297 6.11523 7.30078 6.18164 7.08594 6.31445C6.87109 6.44336 6.68555 6.60352 6.5293 6.79492C6.37305 6.98633 6.24805 7.19141 6.1543 7.41016C6.06055 7.625 5.99609 7.81836 5.96094 7.99023L6.61133 8.18359C6.71289 7.82422 6.8125 7.57617 6.91016 7.43945C7.00781 7.29883 7.10156 7.22852 7.19141 7.22852C7.23438 7.22852 7.27539 7.24805 7.31445 7.28711C7.35352 7.32617 7.37305 7.41211 7.37305 7.54492C7.37305 7.66992 7.36328 7.82227 7.34375 8.00195C7.32422 8.17773 7.30078 8.36914 7.27344 8.57617C7.24609 8.7832 7.21484 8.99805 7.17969 9.2207C7.14453 9.43945 7.11328 9.6582 7.08594 9.87695C7.05859 10.0918 7.03516 10.2988 7.01562 10.498C6.99609 10.6973 6.98633 10.875 6.98633 11.0312C6.98633 11.2422 7.00391 11.4316 7.03906 11.5996C7.07812 11.7676 7.14062 11.9102 7.22656 12.0273C7.31641 12.1445 7.43359 12.2324 7.57812 12.291C7.72656 12.3535 7.91211 12.3848 8.13477 12.3848C8.4043 12.3848 8.64453 12.3203 8.85547 12.1914C9.06641 12.0586 9.24805 11.8965 9.40039 11.7051C9.55273 11.5137 9.67383 11.3105 9.76367 11.0957C9.85742 10.877 9.92188 10.6816 9.95703 10.5098L9.30664 10.3164C9.20508 10.6758 9.10547 10.9258 9.00781 11.0664C8.91016 11.2031 8.81641 11.2715 8.72656 11.2715C8.68359 11.2715 8.64258 11.252 8.60352 11.2129C8.56445 11.1738 8.54492 11.0879 8.54492 10.9551C8.54492 10.8652 8.55273 10.7363 8.56836 10.5684C8.58789 10.4004 8.61133 10.2109 8.63867 10C8.66992 9.78906 8.70117 9.56641 8.73242 9.33203C8.76367 9.09375 8.79297 8.86133 8.82031 8.63477C8.85156 8.4082 8.875 8.19727 8.89062 8.00195Z" fill="#2D3E50"/>
</svg>
