<svg width="12" height="12" viewBox="0 0 12 12" fill="none" xmlns="http://www.w3.org/2000/svg">
<path d="M6.00002 11.6C2.90002 11.6 0.400024 9.09999 0.400024 5.99999C0.400024 2.89999 2.90002 0.399994 6.00002 0.399994C9.10002 0.399994 11.6 2.89999 11.6 5.99999C11.6 9.09999 9.10002 11.6 6.00002 11.6ZM6.00002 1.59999C3.60002 1.59999 1.60002 3.59999 1.60002 5.99999C1.60002 8.39999 3.60002 10.4 6.00002 10.4C8.40002 10.4 10.4 8.39999 10.4 5.99999C10.4 3.59999 8.40002 1.59999 6.00002 1.59999Z" fill="#2D3E50"/>
<path d="M6.21429 2.5C6.42857 2.5 6.58929 2.55303 6.69643 2.71212C6.80357 2.87121 6.85714 3.0303 6.85714 3.24242C6.85714 3.45455 6.80357 3.61364 6.64286 3.77273C6.53571 3.93182 6.32143 3.98485 6.16071 3.98485C5.94643 3.98485 5.78571 3.93182 5.67857 3.77273C5.57143 3.61364 5.51786 3.45455 5.51786 3.24242C5.51786 3.0303 5.625 2.87121 5.73214 2.71212C5.89286 2.60606 6.05357 2.5 6.21429 2.5ZM5.89286 4.7803C6.21429 4.7803 6.42857 4.88636 6.53571 5.04545C6.64286 5.25758 6.75 5.4697 6.75 5.78788C6.75 5.94697 6.75 6.10606 6.69643 6.37121C6.64286 6.63636 6.64286 6.90152 6.58929 7.16667C6.53571 7.43182 6.53571 7.69697 6.48214 7.90909C6.42857 8.12121 6.42857 8.2803 6.42857 8.38636C6.42857 8.49242 6.42857 8.54545 6.48214 8.59848C6.53571 8.65152 6.53571 8.65152 6.58929 8.65152C6.64286 8.65152 6.75 8.59848 6.80357 8.49242C6.85714 8.38636 6.96429 8.22727 7.01786 7.90909L7.5 8.06818C7.5 8.17424 7.44643 8.33333 7.33929 8.49242C7.28571 8.65151 7.17857 8.81061 7.07143 8.9697C6.96429 9.12879 6.80357 9.23485 6.64286 9.34091C6.48214 9.44697 6.32143 9.5 6.10714 9.5C5.78571 9.5 5.51786 9.39394 5.41071 9.23485C5.30357 9.07576 5.25 8.81061 5.25 8.49242C5.25 8.33333 5.25 8.12121 5.30357 7.85606C5.35714 7.59091 5.35714 7.37879 5.41071 7.11364C5.46429 6.84848 5.46429 6.63636 5.51786 6.42424C5.57143 6.21212 5.57143 6 5.57143 5.89394C5.57143 5.78788 5.57143 5.73485 5.51786 5.68182C5.46429 5.62879 5.46429 5.62879 5.41071 5.62879C5.35714 5.62879 5.25 5.68182 5.19643 5.78788C5.14286 5.89394 5.03571 6.05303 4.98214 6.37121L4.5 6.21212C4.5 6.10606 4.55357 5.94697 4.66071 5.78788C4.71429 5.62879 4.82143 5.4697 4.92857 5.31061C5.03571 5.15152 5.19643 5.04545 5.35714 4.93939C5.51786 4.83333 5.67857 4.7803 5.89286 4.7803Z" fill="#2D3E50"/>
</svg>
