<svg width="12" height="12" viewBox="0 0 12 12" fill="none" xmlns="http://www.w3.org/2000/svg">
<path fill-rule="evenodd" clip-rule="evenodd" d="M6 11C8.76142 11 11 8.76142 11 6C11 3.23858 8.76142 1 6 1C3.23858 1 1 3.23858 1 6C1 8.76142 3.23858 11 6 11ZM6.577 3.088C6.47033 2.96 6.329 2.896 6.153 2.896C5.993 2.896 5.849 2.96 5.721 3.088C5.593 3.216 5.52367 3.37333 5.513 3.56C5.50767 3.74133 5.55833 3.896 5.665 4.024C5.777 4.14667 5.92367 4.208 6.105 4.208C6.281 4.208 6.42767 4.14667 6.545 4.024C6.66233 3.896 6.72367 3.74133 6.729 3.56C6.73967 3.37333 6.689 3.216 6.577 3.088ZM6.449 5.168C6.34233 4.99733 6.15033 4.912 5.873 4.912C5.69167 4.912 5.529 4.95467 5.385 5.04C5.24633 5.12533 5.12367 5.23467 5.017 5.368C4.91567 5.496 4.833 5.632 4.769 5.776C4.705 5.92 4.66233 6.048 4.641 6.16L5.073 6.288C5.14233 6.048 5.209 5.88267 5.273 5.792C5.337 5.70133 5.39833 5.656 5.457 5.656C5.489 5.656 5.51833 5.66933 5.545 5.696C5.57167 5.71733 5.585 5.77333 5.585 5.864C5.585 5.992 5.57167 6.15467 5.545 6.352C5.51833 6.544 5.48633 6.752 5.449 6.976C5.417 7.2 5.38767 7.41867 5.361 7.632C5.33433 7.84533 5.321 8.02933 5.321 8.184C5.321 8.46667 5.37433 8.688 5.481 8.848C5.593 9.008 5.79567 9.088 6.089 9.088C6.27033 9.088 6.43033 9.04533 6.569 8.96C6.713 8.87467 6.83567 8.768 6.937 8.64C7.03833 8.50667 7.11833 8.368 7.177 8.224C7.241 8.08 7.28367 7.952 7.305 7.84L6.873 7.712C6.80367 7.952 6.737 8.11733 6.673 8.208C6.609 8.29867 6.545 8.344 6.481 8.344C6.45433 8.344 6.42767 8.33067 6.401 8.304C6.37433 8.27733 6.361 8.22133 6.361 8.136C6.361 8.04533 6.37433 7.90133 6.401 7.704C6.42767 7.50667 6.457 7.288 6.489 7.048C6.521 6.808 6.55033 6.57867 6.577 6.36C6.60367 6.14133 6.617 5.968 6.617 5.84C6.617 5.55733 6.561 5.33333 6.449 5.168Z" fill="#2D3E50"/>
</svg>
