<svg width="24" height="24" viewBox="0 0 24 24" fill="none" xmlns="http://www.w3.org/2000/svg">
<path d="M11.9 22.8C5.9 22.8 1 17.9 1 11.9C1 5.9 5.9 1 11.9 1C17.9 1 22.8 5.9 22.8 11.9C22.8 17.9 17.9 22.8 11.9 22.8ZM11.9 2.8C6.9 2.8 2.8 6.9 2.8 11.9C2.8 16.9 6.9 21 11.9 21C16.9 21 21 16.9 21 11.9C21 6.9 16.9 2.8 11.9 2.8Z" fill="#2D3E50"/>
<path d="M12.2 4.89999C12.6 4.89999 12.9 4.99999 13.1 5.29999C13.3 5.59999 13.4 5.89999 13.4 6.29999C13.4 6.69999 13.3 6.99999 13 7.29999C12.8 7.59999 12.4 7.69999 12.1 7.69999C11.7 7.69999 11.4 7.59999 11.2 7.29999C11 6.99999 10.9 6.69999 10.9 6.29999C10.9 5.89999 11.1 5.59999 11.3 5.29999C11.6 5.09999 11.9 4.89999 12.2 4.89999ZM11.6 9.19999C12.2 9.19999 12.6 9.39999 12.8 9.69999C13 10.1 13.2 10.5 13.2 11.1C13.2 11.4 13.2 11.7 13.1 12.2C13 12.7 13 13.2 12.9 13.7C12.8 14.2 12.8 14.7 12.7 15.1C12.6 15.5 12.6 15.8 12.6 16C12.6 16.2 12.6 16.3 12.7 16.4C12.8 16.5 12.8 16.5 12.9 16.5C13 16.5 13.2 16.4 13.3 16.2C13.4 16 13.6 15.7 13.7 15.1L14.6 15.4C14.6 15.6 14.5 15.9 14.3 16.2C14.2 16.5 14 16.8 13.8 17.1C13.6 17.4 13.3 17.6 13 17.8C12.7 18 12.4 18.1 12 18.1C11.4 18.1 10.9 17.9 10.7 17.6C10.5 17.3 10.4 16.8 10.4 16.2C10.4 15.9 10.4 15.5 10.5 15C10.6 14.5 10.6 14.1 10.7 13.6C10.8 13.1 10.8 12.7 10.9 12.3C11 11.9 11 11.5 11 11.3C11 11.1 11 11 10.9 10.9C10.8 10.8 10.8 10.8 10.7 10.8C10.6 10.8 10.4 10.9 10.3 11.1C10.2 11.3 10 11.6 9.9 12.2L9 11.9C9 11.7 9.1 11.4 9.3 11.1C9.4 10.8 9.6 10.5 9.8 10.2C10 9.89999 10.3 9.69999 10.6 9.49999C10.9 9.29999 11.2 9.19999 11.6 9.19999Z" fill="#2D3E50"/>
</svg>
