<svg width="24" height="24" viewBox="0 0 24 24" fill="none" xmlns="http://www.w3.org/2000/svg">
<path d="M11.9987 18.4286C11.2882 18.4286 10.713 17.8534 10.713 17.1429C10.713 16.4323 11.2882 15.8571 11.9987 15.8571C12.7093 15.8571 13.2844 16.4323 13.2844 17.1429C13.2844 17.8534 12.7093 18.4286 11.9987 18.4286ZM11.1424 8.57143C11.1424 8.09828 11.5264 7.71428 11.9996 7.71428C12.4736 7.71428 12.8567 8.09828 12.8567 8.57143V13.7143C12.8567 14.1874 12.4736 14.5714 11.9996 14.5714C11.5264 14.5714 11.1424 14.1874 11.1424 13.7143V8.57143ZM21.7882 15.8589L15.2404 4.446C14.5676 3.27171 13.3556 2.57143 11.9996 2.57143C10.6436 2.57143 9.43244 3.27171 8.75959 4.446L2.21191 15.8589C1.54419 17.0211 1.54762 18.408 2.21876 19.5677C2.89334 20.7326 4.10276 21.4286 5.45191 21.4286H18.5482C19.8973 21.4286 21.1059 20.7326 21.7813 19.5677C22.4524 18.408 22.4559 17.0211 21.7882 15.8589Z" fill="#2D3E50"/>
</svg>
