<svg width="12" height="12" viewBox="0 0 12 12" fill="none" xmlns="http://www.w3.org/2000/svg">
<path d="M5.99936 9.21429C5.64408 9.21429 5.35651 8.92672 5.35651 8.57143C5.35651 8.21615 5.64408 7.92858 5.99936 7.92858C6.35465 7.92858 6.64222 8.21615 6.64222 8.57143C6.64222 8.92672 6.35465 9.21429 5.99936 9.21429ZM5.57122 4.28572C5.57122 4.04915 5.76322 3.85715 5.99979 3.85715C6.23679 3.85715 6.42836 4.04915 6.42836 4.28572V6.85715C6.42836 7.09372 6.23679 7.28572 5.99979 7.28572C5.76322 7.28572 5.57122 7.09372 5.57122 6.85715V4.28572ZM10.8941 7.92944L7.62022 2.22301C7.28379 1.63586 6.67779 1.28572 5.99979 1.28572C5.32179 1.28572 4.71622 1.63586 4.37979 2.22301L1.10595 7.92944C0.772096 8.51058 0.773811 9.20401 1.10938 9.78386C1.44667 10.3663 2.05138 10.7143 2.72595 10.7143H9.27408C9.94865 10.7143 10.5529 10.3663 10.8907 9.78386C11.2262 9.20401 11.2279 8.51058 10.8941 7.92944Z" fill="#2D3E50"/>
</svg>
