<svg width="24" height="24" viewBox="0 0 24 24" fill="none" xmlns="http://www.w3.org/2000/svg">
<path fill-rule="evenodd" clip-rule="evenodd" d="M11.9996 16.2857C11.5265 16.2857 11.1425 16.6697 11.1425 17.1429C11.1425 17.616 11.5265 18 11.9996 18C12.4728 18 12.8568 17.616 12.8568 17.1429C12.8568 16.6697 12.4728 16.2857 11.9996 16.2857ZM11.9996 7.71428C11.5265 7.71428 11.1425 8.09828 11.1425 8.57143V13.7117C11.1425 14.1849 11.5265 14.5689 11.9996 14.5689C12.4728 14.5689 12.8568 14.1849 12.8568 13.7117V8.57143C12.8568 8.09828 12.4728 7.71428 11.9996 7.71428ZM20.2976 18.7089C19.9334 19.3389 19.2794 19.7143 18.5482 19.7143H5.45192C4.72078 19.7143 4.06678 19.3389 3.7025 18.7089C3.34078 18.0849 3.33907 17.3383 3.69821 16.7126L10.2459 5.29886C10.6102 4.66457 11.2659 4.28571 11.9996 4.28571C12.7342 4.28571 13.3899 4.66457 13.7542 5.29886L20.3019 16.7126C20.6602 17.3383 20.6594 18.0849 20.2976 18.7089ZM21.7882 15.8597L15.2405 4.446C14.5668 3.27257 13.3556 2.57143 11.9996 2.57143C10.6428 2.57143 9.4325 3.27257 8.75964 4.446L2.21107 15.8597C1.54421 17.022 1.54764 18.408 2.21878 19.5677C2.8925 20.7326 4.10192 21.4286 5.45192 21.4286H18.5482C19.8974 21.4286 21.1059 20.7326 21.7814 19.5677C22.4525 18.408 22.4559 17.022 21.7882 15.8597Z" fill="#2D3E50"/>
</svg>
