<svg width="16" height="16" viewBox="0 0 16 16" fill="none" xmlns="http://www.w3.org/2000/svg">
<path d="M7.99913 12.2857C7.52542 12.2857 7.14199 11.9023 7.14199 11.4286C7.14199 10.9549 7.52542 10.5714 7.99913 10.5714C8.47285 10.5714 8.85628 10.9549 8.85628 11.4286C8.85628 11.9023 8.47285 12.2857 7.99913 12.2857ZM7.42828 5.71428C7.42828 5.39885 7.68428 5.14285 7.9997 5.14285C8.3157 5.14285 8.57113 5.39885 8.57113 5.71428V9.14285C8.57113 9.45828 8.3157 9.71428 7.9997 9.71428C7.68428 9.71428 7.42828 9.45828 7.42828 9.14285V5.71428ZM14.5254 10.5726L10.1603 2.96399C9.7117 2.18114 8.9037 1.71428 7.9997 1.71428C7.0957 1.71428 6.28828 2.18114 5.8397 2.96399L1.47458 10.5726C1.02944 11.3474 1.03173 12.272 1.47916 13.0451C1.92887 13.8217 2.73516 14.2857 3.63458 14.2857H12.3654C13.2648 14.2857 14.0706 13.8217 14.5208 13.0451C14.9683 12.272 14.9706 11.3474 14.5254 10.5726Z" fill="#2D3E50"/>
</svg>
