<svg width="12" height="12" viewBox="0 0 12 12" fill="none" xmlns="http://www.w3.org/2000/svg">
<path fill-rule="evenodd" clip-rule="evenodd" d="M5.99983 8.14285C5.76326 8.14285 5.57126 8.33485 5.57126 8.57142C5.57126 8.80799 5.76326 8.99999 5.99983 8.99999C6.23641 8.99999 6.42841 8.80799 6.42841 8.57142C6.42841 8.33485 6.23641 8.14285 5.99983 8.14285ZM5.99983 3.85713C5.76326 3.85713 5.57126 4.04913 5.57126 4.28571V6.85585C5.57126 7.09242 5.76326 7.28442 5.99983 7.28442C6.23641 7.28442 6.42841 7.09242 6.42841 6.85585V4.28571C6.42841 4.04913 6.23641 3.85713 5.99983 3.85713ZM10.1488 9.35442C9.96669 9.66942 9.63969 9.85713 9.27412 9.85713H2.72598C2.36041 9.85713 2.03341 9.66942 1.85126 9.35442C1.67041 9.04242 1.66955 8.66913 1.84912 8.35628L5.12298 2.64942C5.30512 2.33228 5.63298 2.14285 5.99983 2.14285C6.36712 2.14285 6.69498 2.33228 6.87712 2.64942L10.151 8.35628C10.3301 8.66913 10.3297 9.04242 10.1488 9.35442ZM10.8941 7.92985L7.62026 2.22299C7.28341 1.63628 6.67783 1.28571 5.99983 1.28571C5.32141 1.28571 4.71626 1.63628 4.37983 2.22299L1.10555 7.92985C0.77212 8.51099 0.773834 9.20399 1.10941 9.78385C1.44626 10.3663 2.05098 10.7143 2.72598 10.7143H9.27412C9.94869 10.7143 10.553 10.3663 10.8907 9.78385C11.2263 9.20399 11.228 8.51099 10.8941 7.92985Z" fill="#2D3E50"/>
</svg>
