<svg width="16" height="16" viewBox="0 0 16 16" fill="none" xmlns="http://www.w3.org/2000/svg">
<path fill-rule="evenodd" clip-rule="evenodd" d="M7.99977 10.8571C7.68434 10.8571 7.42834 11.1131 7.42834 11.4286C7.42834 11.744 7.68434 12 7.99977 12C8.3152 12 8.5712 11.744 8.5712 11.4286C8.5712 11.1131 8.3152 10.8571 7.99977 10.8571ZM7.99977 5.14285C7.68434 5.14285 7.42834 5.39885 7.42834 5.71428V9.14114C7.42834 9.45657 7.68434 9.71256 7.99977 9.71256C8.3152 9.71256 8.5712 9.45657 8.5712 9.14114V5.71428C8.5712 5.39885 8.3152 5.14285 7.99977 5.14285ZM13.5318 12.4726C13.2889 12.8926 12.8529 13.1429 12.3655 13.1429H3.63463C3.1472 13.1429 2.7112 12.8926 2.46834 12.4726C2.2272 12.0566 2.22605 11.5589 2.46548 11.1417L6.83063 3.53257C7.07348 3.10971 7.51063 2.85714 7.99977 2.85714C8.48948 2.85714 8.92663 3.10971 9.16948 3.53257L13.5346 11.1417C13.7735 11.5589 13.7729 12.0566 13.5318 12.4726ZM14.5255 10.5731L10.1603 2.96399C9.7112 2.18171 8.90377 1.71428 7.99977 1.71428C7.0952 1.71428 6.28834 2.18171 5.83977 2.96399L1.47405 10.5731C1.02948 11.348 1.03177 12.272 1.4792 13.0451C1.92834 13.8217 2.73463 14.2857 3.63463 14.2857H12.3655C13.2649 14.2857 14.0706 13.8217 14.5209 13.0451C14.9683 12.272 14.9706 11.348 14.5255 10.5731Z" fill="#2D3E50"/>
</svg>
